<svg id="Capa_1" enable-background="new 0 0 512.002 512.002" height="512" viewBox="0 0 512.002 512.002" width="512" xmlns="http://www.w3.org/2000/svg"><g><g><path d="m388.566 274.861c-5.8 2.124-10.646 3.919-10.646 3.919l-37.308 36.246s-14 32.667-15.333 34.667-4.667 14.996-2.667 20.832c2 5.835 16.333 34.168 18 36.835s15.333 19.333 16.333 20 16.333 10.333 16.333 10.333l22.312 7.969c39.369-8.16 68.958-43.035 68.958-84.823.001-44.24-33.161-80.73-75.982-85.978z" fill="#7b6c79"/><path d="m333.291 360.839c0-40.601 27.933-74.674 65.629-84.061-6.724-1.674-13.757-2.569-21-2.569-4.148 0-8.227.295-12.218.86l-6.756 1.207-45.875 30.625-3.977 1.352c-11.159 14.583-17.803 32.804-17.803 52.586 0 47.844 38.785 86.629 86.629 86.629 7.243 0 14.276-.894 21-2.569-37.696-9.387-65.629-43.459-65.629-84.06z" fill="#665e68"/><path d="m476.445 151.193-217.508 2.699 99.553 110.468 14.114 5.622 87.686-64.638c11.845-8.731 18.837-22.572 18.837-37.287v-12.265z" fill="#ff7f87"/><path d="m267.479 153.786-59.659.74 50.016 56.622 75.931 83.614h5.22l33.852-24.954z" fill="#ff636e"/><path d="m489.507 125.791h-247.451v9.368l18.593 20.632h228.858c8.284 0 15-6.716 15-15s-6.716-15-15-15z" fill="#ff9ba1"/><path d="m242.056 125.791h-56.514v3.985l22.278 24.75 4.966 1.265h56.513z" fill="#ff7f87"/><path d="m396.292 314.464h-11.347s-17 22.229-17.333 24.563c-.333 2.333-10.333 28-9 35.333s3.667 11 7.333 17c3.667 6 10.282 9.667 11.974 11 .989.779 8.913 3.741 15.396 5.929 20.013-6.49 34.487-25.275 34.487-47.45.001-21.06-13.055-39.058-31.51-46.375z" fill="#ff7f87"/><path d="m364.782 360.839c0-21.059 13.057-39.057 31.511-46.375-5.688-2.255-11.882-3.508-18.373-3.508-7.233 0-14.1 1.552-20.304 4.321l-23.095 20.977c-4.12 7.258-6.485 15.643-6.485 24.585 0 27.55 22.334 49.884 49.884 49.884 6.49 0 12.685-1.253 18.373-3.508-18.455-7.319-31.511-25.317-31.511-46.376z" fill="#ff636e"/><g><path d="m142.284 361.13c-6.525-10.233-7.365-22.911-2.246-33.915 21.782-46.822 55.181-118.392 66.408-142.763 1.733-3.764 6.187-5.41 9.95-3.674 3.762 1.732 5.407 6.188 3.674 9.949-11.237 24.393-44.645 95.981-66.432 142.814-8.958 19.258 14.336 38.097 31.257 24.397l104.049-84.152c3.219-2.605 7.941-2.109 10.548 1.109 2.606 3.22 2.109 7.942-1.11 10.549l-104.049 84.152c-16.248 13.157-40.594 9.497-52.049-8.466z" fill="#b5dcff"/></g><path d="m125.945 96.097 239.018 260.517 16.482 3.247 9.038-8.27c-.314-.425-.652-.839-1.015-1.238l-224.666-247.4c-12.959-14.271-31.447-22.455-50.723-22.455h-23.286v15.6h35.152z" fill="#dbedff"/><path d="m388.273 349.036c-2.967 2.635-6.662 3.941-10.349 3.941-4.245 0-8.475-1.722-11.553-5.113l-224.666-247.4c-7.058-7.773-17.127-12.23-27.626-12.23h-23.286v23.462h23.286c10.499 0 20.568 4.458 27.626 12.23l224.666 247.4c3.079 3.39 7.309 5.113 11.553 5.113 3.742 0 7.495-1.338 10.483-4.052 6.378-5.792 6.854-15.658 1.061-22.036z" fill="#b5dcff"/><path d="m23.105 80.497h67.688v31.2h-67.688c-8.616 0-15.6-6.985-15.6-15.6s6.985-15.6 15.6-15.6z" fill="#ff7f87"/><g><path d="m90.793 135.159c-4.142 0-7.5-3.357-7.5-7.5v-63.125c0-4.143 3.358-7.5 7.5-7.5s7.5 3.357 7.5 7.5v63.125c0 4.143-3.358 7.5-7.5 7.5z" fill="#ff9ba1"/></g></g><g><path d="m489.502 118.291h-115.343c-4.143 0-7.5 3.357-7.5 7.5s3.357 7.5 7.5 7.5h115.343c4.136 0 7.5 3.364 7.5 7.5s-3.364 7.5-7.5 7.5c-7.072 0-266.339 0-273.4 0l-13.622-15h136.68c4.143 0 7.5-3.357 7.5-7.5s-3.357-7.5-7.5-7.5h-150.302l-18.508-20.381c-14.377-15.833-34.889-24.914-56.275-24.914h-15.787v-8.462c0-4.143-3.357-7.5-7.5-7.5s-7.5 3.357-7.5 7.5v8.462h-60.188c-12.74 0-23.1 10.365-23.1 23.101 0 12.737 10.362 23.1 23.1 23.1h60.188v8.463c0 4.143 3.357 7.5 7.5 7.5s7.5-3.357 7.5-7.5v-8.463h15.786c8.388 0 16.434 3.562 22.073 9.772l63.476 69.899c-12.167 26.36-38.834 83.729-59.59 128.347-5.119 11.004-4.279 23.683 2.246 33.915 11.448 17.953 35.797 21.628 52.05 8.467l92.4-74.81 12.754 14.045c-10.28 15.43-15.698 33.276-15.698 52.007 0 51.903 42.226 94.129 94.129 94.129s94.129-42.226 94.129-94.129c0-48.216-36.442-88.073-83.228-93.494l75.919-55.965c13.705-10.103 21.887-26.299 21.887-43.324v-4.765h2.88c12.406 0 22.5-10.094 22.5-22.5s-10.093-22.5-22.499-22.5zm-466.402-14.095c-4.466 0-8.1-3.634-8.1-8.1s3.634-8.1 8.1-8.1h60.188v16.199h-60.188zm90.974 0h-15.786v-16.2h15.786c17.166 0 33.63 7.289 45.17 19.998 4.423 4.871 166.767 183.641 174.186 191.811 0 0 .007.006.01.01l50.472 55.579c3.002 3.306 2.753 8.438-.551 11.442-3.244 2.945-8.364 2.839-11.441-.552-6.817-7.507-220.362-242.659-224.667-247.399-8.478-9.335-20.57-14.689-33.179-14.689zm70.816 253.742c-8.96 7.256-23.067 5.941-29.963-4.874-3.812-5.979-4.284-13.094-1.294-19.523 19.354-41.601 43.845-94.287 56.942-122.614l66.054 72.738zm193.025-76.228c43.632 0 79.129 35.497 79.129 79.129s-35.497 79.129-79.129 79.129-79.129-35.497-79.129-79.129c0-14.459 3.829-28.295 11.146-40.502 6.194 6.821 9.765 10.753 15.571 17.147-3.264 7.322-4.971 15.297-4.971 23.355 0 31.641 25.742 57.383 57.384 57.383 23.795 0 45.392-14.97 53.742-37.251 1.453-3.879-.513-8.201-4.392-9.655-3.877-1.45-8.201.512-9.655 4.392-6.167 16.457-22.119 27.515-39.695 27.515-27.565 0-48.089-26.153-40.989-53.158 9.122 10.044 4.881 5.374 23.888 26.305 8.358 9.205 22.967 10.349 32.631 1.571 9.389-8.528 10.206-23.119 1.572-32.63l-23.895-26.313c2.231-.36 4.499-.542 6.793-.542 17.575 0 33.528 11.058 39.695 27.516 1.454 3.879 5.776 5.843 9.655 4.392 3.879-1.454 5.845-5.776 4.392-9.655-8.351-22.281-29.947-37.252-53.742-37.252-6.252 0-12.353 1.005-18.208 2.972l-9.587-10.557 18.466-13.612c3.091-.366 6.221-.55 9.328-.55zm93.707-113.654c0 12.28-5.901 23.963-15.787 31.25l-94.578 69.72c-.003.002-.007.004-.01.007l-21.263 15.675-110.26-121.416h241.899v4.764z"/></g></g></svg>